<svg width="24" height="24" viewBox="0 0 24 24" fill="none" xmlns="http://www.w3.org/2000/svg">
  <path d="M17 2H20C20.5304 2 21.0391 2.21071 21.4142 2.58579C21.7893 2.96086 22 3.46957 22 4V11C22 11.5304 21.7893 12.0391 21.4142 12.4142C21.0391 12.7893 20.5304 13 20 13H17M10 15V19C10 19.7956 10.3161 20.5587 10.8787 21.1213C11.4413 21.6839 12.2044 22 13 22L17 13V2H5.72C5.23765 1.99446 4.76961 2.16359 4.40207 2.47599C4.03453 2.78839 3.79217 3.22309 3.72 3.7L2.34 12.7C2.29651 12.9866 2.31583 13.2793 2.39666 13.5577C2.47749 13.8362 2.61791 14.0937 2.80814 14.3125C2.99837 14.5313 3.23387 14.7061 3.49837 14.8248C3.76288 14.9435 4.05013 15.0033 4.34 15H10Z" stroke="currentColor" stroke-width="2" stroke-linecap="round" stroke-linejoin="round"/>
</svg>