<svg width="119" height="99" viewBox="0 0 119 99" fill="none" xmlns="http://www.w3.org/2000/svg">
    <rect x="22" width="74" height="74" rx="37" fill="#67CE67" />
    <path
        d="M51.1172 45.0781C56.0039 49.9648 62.1035 53.8145 67.1309 53.8145C69.4336 53.8145 71.4023 53.0234 73.0195 51.2832C73.916 50.334 74.584 49.1035 74.584 47.9258C74.584 47.082 74.2676 46.2734 73.4062 45.6758L68.0449 41.8965C67.3066 41.3867 66.6562 41.1055 66.041 41.1055C65.25 41.1055 64.5117 41.5273 63.7031 42.3184L62.4199 43.5664C62.2266 43.7598 61.998 43.8301 61.752 43.8301C61.5059 43.8301 61.2773 43.7422 61.084 43.6543C60.0469 43.1094 58.1484 41.6152 56.373 39.8223C54.5801 38.0293 53.0508 36.166 52.541 35.0938C52.4531 34.9004 52.3652 34.6719 52.3652 34.4609C52.3652 34.2324 52.4355 34.0215 52.6289 33.8281L53.877 32.5098C54.6504 31.666 55.0723 30.9277 55.0723 30.1543C55.0723 29.5215 54.8086 28.8711 54.2812 28.1328L50.5898 22.9121C49.9746 22.0508 49.1133 21.6641 48.1641 21.6641C47.0566 21.6641 45.8613 22.209 44.8418 23.2109C43.1543 24.8457 42.416 26.8672 42.416 29.0996C42.416 34.127 46.2129 40.1738 51.1172 45.0781Z"
        fill="white" />
</svg>