<svg width="97" height="99" viewBox="0 0 97 99" fill="none" xmlns="http://www.w3.org/2000/svg">
    <rect x="11" width="74" height="74" rx="37" fill="#EB5545" />
    <path
        d="M47.3619 26.921C40.451 26.921 33.4159 28.512 29.861 32.0669C28.2327 33.6951 27.3999 35.6466 27.4869 38.0206C27.5242 39.3258 27.922 40.6682 28.7548 41.5009C29.3514 42.0976 30.1469 42.4456 31.1785 42.2591L37.6419 41.1405C38.5244 40.9789 39.1832 40.7179 39.6182 40.2828C40.1776 39.7235 40.4013 38.9032 40.4137 37.7721L40.4386 35.9822C40.4386 35.7087 40.5505 35.4974 40.7245 35.3234C40.8985 35.1494 41.1222 35.05 41.3211 34.9754C42.4398 34.6274 44.8387 34.3415 47.3619 34.3539C49.8975 34.3539 52.2965 34.5901 53.4151 34.9878C53.614 35.0624 53.8377 35.1618 53.9869 35.311C54.1485 35.4726 54.2479 35.6715 54.2479 35.9449L54.2976 37.7596C54.3473 38.9032 54.5711 39.7235 55.118 40.2704C55.5654 40.7179 56.2118 40.9913 57.1067 41.1405L63.4085 42.2219C64.4526 42.3959 65.3351 42.0603 66.0063 41.3891C66.7894 40.606 67.2493 39.3755 67.2617 37.9461C67.299 35.5969 66.3916 33.6454 64.8131 32.0669C61.2582 28.512 54.2976 26.921 47.3619 26.921Z"
        fill="white" />

</svg>